HIERARCHY
ROOT Hips
{
	OFFSET 0.000000 0.000000 0.000000
	CHANNELS 6 Xposition Yposition Zposition Xrotation Yrotation Zrotation
	JOINT LeftUpLeg_virtual
	{
		OFFSET 0.000000 0.000000 0.000000
		CHANNELS 3 Xrotation Yrotation Zrotation
		JOINT LeftUpLeg
		{
			OFFSET 10.205400 -3.823500 0.155100
			CHANNELS 3 Xrotation Yrotation Zrotation
			JOINT LeftLeg
			{
				OFFSET 0.708757 -12.982077 0.567790
				CHANNELS 3 Xrotation Yrotation Zrotation
				JOINT LeftFoot
				{
					OFFSET -0.708756 -10.717838 -2.184338
					CHANNELS 3 Xrotation Yrotation Zrotation
					JOINT LeftToeBase
					{
						OFFSET 0.108149 -7.191104 7.560241
						CHANNELS 3 Xrotation Yrotation Zrotation
						JOINT LeftToe_End
						{
							OFFSET 0.070230 0.081724 4.490308
							CHANNELS 3 Xrotation Yrotation Zrotation
							End Site
							{
								OFFSET 0 0 0
							}
						}
					}
				}
			}
		}
	}
	JOINT RightUpLeg_virtual
	{
		OFFSET 0.000000 0.000000 0.000000
		CHANNELS 3 Xrotation Yrotation Zrotation
		JOINT RightUpLeg
		{
			OFFSET -10.205400 -3.823500 0.005500
			CHANNELS 3 Xrotation Yrotation Zrotation
			JOINT RightLeg
			{
				OFFSET -0.708756 -12.982134 0.610632
				CHANNELS 3 Xrotation Yrotation Zrotation
				JOINT RightFoot
				{
					OFFSET 0.708754 -10.717769 -1.945823
					CHANNELS 3 Xrotation Yrotation Zrotation
					JOINT RightToeBase
					{
						OFFSET -0.108140 -7.191069 7.372968
						CHANNELS 3 Xrotation Yrotation Zrotation
						JOINT RightToe_End
						{
							OFFSET -0.070227 0.081735 4.479403
							CHANNELS 3 Xrotation Yrotation Zrotation
							End Site
							{
								OFFSET 0 0 0
							}
						}
					}
				}
			}
		}
	}
	JOINT Spine_virtual
	{
		OFFSET 0.000000 0.000000 0.000000
		CHANNELS 3 Xrotation Yrotation Zrotation
		JOINT Spine
		{
			OFFSET 0.000000 6.876099 0.125700
			CHANNELS 3 Xrotation Yrotation Zrotation
			JOINT Spine1
			{
				OFFSET 0.000000 5.730043 0.104720
				CHANNELS 3 Xrotation Yrotation Zrotation
				JOINT Spine1_split
				{
					OFFSET 0.000000 5.730043 0.104720
					CHANNELS 3 Xrotation Yrotation Zrotation
					JOINT Spine2
					{
						OFFSET 0.000000 5.730043 0.104720
						CHANNELS 3 Xrotation Yrotation Zrotation
						JOINT Neck_virtual
						{
							OFFSET 0.000000 0.000000 0.000000
							CHANNELS 3 Xrotation Yrotation Zrotation
							JOINT Neck
							{
								OFFSET 0.000000 10.314075 0.188496
								CHANNELS 3 Xrotation Yrotation Zrotation
								JOINT Head
								{
									OFFSET 0.000000 7.643700 -2.377400
									CHANNELS 3 Xrotation Yrotation Zrotation
									JOINT HeadTop_End
									{
										OFFSET 0.000000 43.788605 -13.619600
										CHANNELS 3 Xrotation Yrotation Zrotation
										End Site
										{
											OFFSET 0 0 0
										}
									}
								}
							}
						}
						JOINT LeftShoulder_virtual
						{
							OFFSET 0.000000 0.000000 0.000000
							CHANNELS 3 Xrotation Yrotation Zrotation
							JOINT LeftShoulder
							{
								OFFSET 2.196100 4.412489 0.087492
								CHANNELS 3 Xrotation Yrotation Zrotation
								JOINT LeftShoulder_split
								{
									OFFSET 2.196100 4.412489 0.087492
									CHANNELS 3 Xrotation Yrotation Zrotation
									JOINT LeftArm
									{
										OFFSET 8.771219 -2.981674 -0.026999
										CHANNELS 3 Xrotation Yrotation Zrotation
										JOINT LeftForeArm
										{
											OFFSET 8.512804 0.000000 -0.000000
											CHANNELS 3 Xrotation Yrotation Zrotation
											JOINT LeftHand
											{
												OFFSET 18.484802 0.000000 -0.000000
												CHANNELS 3 Xrotation Yrotation Zrotation
												End Site
												{
													OFFSET 0 0 0
												}
											}
										}
									}
								}
							}
						}
						JOINT RightShoulder_virtual
						{
							OFFSET 0.000000 0.000000 0.000000
							CHANNELS 3 Xrotation Yrotation Zrotation
							JOINT RightShoulder
							{
								OFFSET -2.196100 4.412496 0.070690
								CHANNELS 3 Xrotation Yrotation Zrotation
								JOINT RightShoulder_split
								{
									OFFSET -2.196100 4.412496 0.070690
									CHANNELS 3 Xrotation Yrotation Zrotation
									JOINT RightArm
									{
										OFFSET -8.771282 -2.981682 -0.094208
										CHANNELS 3 Xrotation Yrotation Zrotation
										JOINT RightForeArm
										{
											OFFSET -8.494598 0.000000 0.000000
											CHANNELS 3 Xrotation Yrotation Zrotation
											JOINT RightHand
											{
												OFFSET -18.483803 0.000000 0.000001
												CHANNELS 3 Xrotation Yrotation Zrotation
												End Site
												{
													OFFSET 0 0 0
												}
											}
										}
									}
								}
							}
						}
					}
				}
			}
		}
	}
}
MOTION
Frames: 5
Frame Time: 0.03333333
4.696510 30.180977 -6.255556 0.000000 0.000000 0.000000 9.013369 15.491238 0.092041 1.099279 12.518010 7.866183 51.771611 -5.074227 5.671906 -17.380239 -6.287709 -20.097022 -19.611992 0.570591 -3.277955 0.000000 0.000000 0.000000 8.452250 13.164764 0.268025 -34.495413 -9.555618 -7.231256 43.146001 1.337140 1.110189 -19.918295 2.064789 1.861122 -4.821428 0.548450 -1.583516 0.000000 0.000000 0.000000 8.738394 14.289626 0.178686 1.347439 -3.273305 -2.036911 2.359573 -1.626053 1.954420 -0.970015 1.143877 -0.005621 0.000000 0.000000 0.000000 2.200325 -2.529947 2.305619 -3.797506 3.148637 1.315437 -11.532076 3.930579 8.489871 0.000000 0.000000 0.000000 0.838492 -1.815989 2.645535 0.909983 1.352591 -0.505999 4.201605 -6.488057 6.738653 -42.542830 -7.297309 -37.387281 173.901725 -63.137142 173.912531 0.000000 0.000000 0.000000 1.144264 -2.843209 1.885846 -0.810912 -19.268317 6.706924 -0.629636 8.861883 -3.814544 -34.536134 8.777109 54.793417 -173.050151 62.275151 174.835221 0.000000 0.000000 0.000000 
4.956866 30.609154 -7.327715 0.000000 0.000000 0.000000 12.214998 16.162782 -2.902824 -11.973921 10.520076 14.288236 62.454505 -3.502716 4.030167 -3.807706 -7.176736 -15.196090 -8.961707 0.982642 -7.523666 0.000000 0.000000 0.000000 9.997957 12.342605 -1.951486 -34.339138 -10.541315 -4.968846 42.083507 2.311660 0.959958 -20.020739 2.079502 3.029722 -7.750852 0.204120 -2.532778 0.000000 0.000000 0.000000 11.106473 13.218580 -1.854315 4.793098 -2.289922 -0.438512 2.380119 -1.140253 0.951341 0.540775 1.093510 -0.127797 0.000000 0.000000 0.000000 2.308517 -2.079773 1.616193 -4.534165 2.702249 -0.569641 -14.979238 1.371541 9.768039 0.000000 0.000000 0.000000 1.128281 -1.385877 1.851375 1.137104 0.211827 10.944223 4.047197 -3.581941 2.368914 -58.698106 -6.090697 -35.889014 173.290492 -67.546903 172.710308 0.000000 0.000000 0.000000 1.443689 -2.108758 1.061912 -2.626240 -18.181726 -0.835255 0.049633 6.355852 -4.113291 -53.055588 3.126612 57.946956 -173.056640 65.854259 174.008864 0.000000 0.000000 0.000000 
5.114049 30.677763 -8.070086 0.000000 0.000000 0.000000 14.178578 14.684864 -4.673895 -25.035384 9.030941 20.372298 74.381593 -1.397485 0.855532 6.477514 -5.215374 -5.178875 0.167248 0.538028 -10.260086 0.000000 0.000000 0.000000 11.370429 10.958648 -3.604699 -35.259175 -11.185616 -4.106582 43.698317 1.324362 1.389089 -20.792313 1.546411 1.459211 -10.546925 -0.662312 -2.629826 0.000000 0.000000 0.000000 13.144917 11.071024 -3.041288 7.647913 -1.086211 0.448952 2.791747 -0.648860 0.107581 1.758281 1.029298 -0.324643 0.000000 0.000000 0.000000 2.977039 -1.594963 1.072603 -5.495801 2.283876 -2.230254 -18.918659 -0.717614 10.676404 0.000000 0.000000 0.000000 1.914707 -1.020576 1.151021 1.394133 -0.305319 21.217156 3.889555 -0.258905 -0.714850 -71.463709 -5.677285 -31.925110 168.867343 -75.535451 168.083688 0.000000 0.000000 0.000000 2.324839 -1.423550 0.315716 -4.220152 -16.339761 -8.623517 0.834163 3.005550 -4.085899 -66.634069 -3.643845 57.368425 -174.072261 70.131044 173.502965 0.000000 0.000000 0.000000 
5.215888 30.583944 -8.533703 0.000000 0.000000 0.000000 14.791936 11.742870 -4.765978 -36.913204 8.468937 24.353688 84.299137 -0.193942 -2.449464 12.305161 -2.385409 5.874447 2.423355 0.056881 -9.165296 0.000000 0.000000 0.000000 12.615773 8.824820 -4.212131 -37.235292 -11.395125 -5.070896 46.135066 -0.854913 2.563974 -20.623312 0.748703 -1.467129 -12.490728 -1.805138 -1.947412 0.000000 0.000000 0.000000 14.544217 8.424544 -3.161882 9.370582 -0.006168 0.531952 3.417969 -0.250980 -0.306156 1.546339 0.463392 0.063762 0.000000 0.000000 0.000000 3.938649 -1.141189 0.887266 -6.569113 1.952091 -3.119279 -22.376347 -2.004564 11.276631 0.000000 0.000000 0.000000 2.923401 -0.741954 0.851597 1.354051 0.038789 28.166633 3.530785 2.397079 -3.475696 -79.108241 -6.250670 -27.482111 153.623563 -83.196861 153.319100 0.000000 0.000000 0.000000 3.475416 -0.962043 -0.131002 -5.109805 -14.170315 -14.750603 1.378814 0.240467 -3.170738 -72.764143 -8.520441 54.835846 -176.482936 73.973298 174.075854 0.000000 0.000000 0.000000 
5.139426 30.587999 -8.779621 0.000000 0.000000 0.000000 14.764238 8.758130 -3.932580 -46.542907 8.703655 25.182030 89.130895 -0.248417 -4.519541 14.818288 -0.936679 13.361231 -0.808906 -0.270078 -5.345573 0.000000 0.000000 0.000000 13.777773 6.068073 -3.631962 -39.467784 -10.773453 -7.307908 46.586077 -2.406909 3.772099 -18.916904 0.496397 -2.899899 -13.294589 -2.699606 -1.091219 0.000000 0.000000 0.000000 15.987917 5.800197 -2.822035 9.740476 0.773609 -0.067644 4.124207 -0.015301 -0.199409 0.919091 -0.379775 0.468192 0.000000 0.000000 0.000000 4.794208 -0.816536 1.116785 -7.770442 1.694442 -3.055624 -24.641565 -2.362143 11.719373 0.000000 0.000000 0.000000 3.711645 -0.452789 1.022599 0.939965 1.275181 29.790997 2.639421 2.738069 -4.932901 -79.938451 -6.527571 -24.133587 134.598863 -85.736113 135.165154 0.000000 0.000000 0.000000 4.575486 -0.701284 -0.120583 -5.144198 -12.181261 -17.459902 1.540802 -0.506234 -2.160234 -71.090166 -10.743211 52.793459 179.627022 76.032764 176.492594 0.000000 0.000000 0.000000 
